<svg xmlns="http://www.w3.org/2000/svg" viewBox="0 0 1000 120" width="1000" height="120">
  <defs>
    <linearGradient id="gold" x1="0" y1="0" x2="0" y2="1"><stop offset="0" stop-color="#FBF0CD"/><stop offset="0.45" stop-color="#D4A441"/><stop offset="1" stop-color="#9C7420"/></linearGradient>
    <linearGradient id="goldh" x1="0" y1="0" x2="1" y2="0"><stop offset="0" stop-color="#9C7420"/><stop offset="0.5" stop-color="#F8EBC4"/><stop offset="1" stop-color="#9C7420"/></linearGradient>
    <linearGradient id="sstar" x1="0" y1="0" x2="1" y2="1"><stop offset="0" stop-color="#fff" stop-opacity="0"/><stop offset="1" stop-color="#FFF6D6"/></linearGradient>
    <radialGradient id="aur1" cx="0.5" cy="0.5" r="0.5"><stop offset="0" stop-color="#D4A441" stop-opacity="0.34"/><stop offset="0.6" stop-color="#8a6a1f" stop-opacity="0.1"/><stop offset="1" stop-color="#D4A441" stop-opacity="0"/></radialGradient>
    <radialGradient id="aur2" cx="0.5" cy="0.5" r="0.5"><stop offset="0" stop-color="#7a9130" stop-opacity="0.4"/><stop offset="1" stop-color="#7a9130" stop-opacity="0"/></radialGradient>
    <radialGradient id="aur3" cx="0.5" cy="0.5" r="0.5"><stop offset="0" stop-color="#B5652A" stop-opacity="0.26"/><stop offset="1" stop-color="#B5652A" stop-opacity="0"/></radialGradient>
    <radialGradient id="vig" cx="0.5" cy="0.5" r="0.75"><stop offset="0.55" stop-color="#000" stop-opacity="0"/><stop offset="1" stop-color="#000" stop-opacity="0.55"/></radialGradient>
    <filter id="blur6" x="-20%" y="-50%" width="140%" height="200%"><feGaussianBlur stdDeviation="6"/></filter>
    <filter id="blur3" x="-20%" y="-50%" width="140%" height="200%"><feGaussianBlur stdDeviation="3"/></filter>
    <filter id="blur10" x="-30%" y="-80%" width="160%" height="260%"><feGaussianBlur stdDeviation="10"/></filter>
    <filter id="tsh" x="-10%" y="-30%" width="120%" height="200%"><feGaussianBlur stdDeviation="3"/></filter>
    <linearGradient id="shim" gradientUnits="userSpaceOnUse" x1="-350" y1="0" x2="0" y2="0"><stop offset="0" stop-color="#fff" stop-opacity="0"/><stop offset="0.5" stop-color="#FFF6D6" stop-opacity="0.95"/><stop offset="1" stop-color="#fff" stop-opacity="0"/><animate attributeName="x1" values="-350;1000;1000" keyTimes="0;0.6;1" dur="7s" begin="0s" repeatCount="indefinite"/><animate attributeName="x2" values="0;1350;1350" keyTimes="0;0.6;1" dur="7s" begin="0s" repeatCount="indefinite"/></linearGradient>
    <linearGradient id="bg" x1="0" y1="0" x2="0" y2="1"><stop offset="0" stop-color="#171c0c"/><stop offset="1" stop-color="#232a14"/></linearGradient>
    <linearGradient id="gridf" x1="0" y1="1" x2="0" y2="0"><stop offset="0" stop-color="#D4A441" stop-opacity="0"/><stop offset="1" stop-color="#D4A441" stop-opacity="0.3"/></linearGradient>
    <linearGradient id="ln" x1="0" y1="0" x2="1" y2="0"><stop offset="0" stop-color="#D4A441" stop-opacity="0"/><stop offset="0.5" stop-color="#F8EBC4"/><stop offset="1" stop-color="#D4A441" stop-opacity="0"/></linearGradient>
    <radialGradient id="tr" cx="0.5" cy="0.5" r="0.5"><stop offset="0" stop-color="#FFF6D6"/><stop offset="0.4" stop-color="#D4A441" stop-opacity="0.6"/><stop offset="1" stop-color="#D4A441" stop-opacity="0"/></radialGradient>
    <clipPath id="ftop"><rect x="0" y="0" width="1000" height="46"/></clipPath>
    <clipPath id="all"><rect width="1000" height="120"/></clipPath><linearGradient id="sgft" x1="0" y1="0" x2="1" y2="0"><stop offset="0" stop-color="#fff" stop-opacity="0"/><stop offset="0.5" stop-color="#FFF6D6" stop-opacity="0.08"/><stop offset="1" stop-color="#fff" stop-opacity="0"/></linearGradient><clipPath id="scft"><rect x="0" y="0" width="1000" height="120" rx="0"/></clipPath>
  </defs>
  <rect width="1000" height="120" fill="url(#bg)"/>
  <g clip-path="url(#all)">
    <ellipse cx="300" cy="70" rx="330" ry="80" fill="url(#aur2)"><animate attributeName="cx" values="260;360;260" dur="13s" repeatCount="indefinite"/></ellipse>
    <ellipse cx="720" cy="66" rx="340" ry="80" fill="url(#aur1)"><animate attributeName="cx" values="740;640;740" dur="11s" repeatCount="indefinite"/></ellipse>
  </g>
  <g clip-path="url(#ftop)" fill="none" stroke="url(#gridf)" stroke-width="1" transform="translate(0 0)">
    <path d="M0 8 H1000 M0 20 H1000 M0 34 H1000"/><path d="M500 46 L-620 0 M500 46 L-332 0 M500 46 L-76 0 M500 46 L148 0 M500 46 L340 0 M500 46 L500 0 M500 46 L660 0 M500 46 L852 0 M500 46 L1076 0 M500 46 L1332 0 M500 46 L1620 0"/>
  </g>
  <circle cx="60" cy="30" r="1.5" fill="#F5E6B8" opacity="0"><animate attributeName="opacity" values="0;0.95;0" dur="3.2s" begin="0s" repeatCount="indefinite"/></circle><circle cx="120" cy="90" r="1.3" fill="#F5E6B8" opacity="0"><animate attributeName="opacity" values="0;0.95;0" dur="2.8s" begin="1.1s" repeatCount="indefinite"/></circle><circle cx="190" cy="24" r="1.7" fill="#F5E6B8" opacity="0"><animate attributeName="opacity" values="0;0.95;0" dur="3.6s" begin="2.2s" repeatCount="indefinite"/></circle><circle cx="260" cy="96" r="1.4" fill="#F5E6B8" opacity="0"><animate attributeName="opacity" values="0;0.95;0" dur="3s" begin="0.6s" repeatCount="indefinite"/></circle><circle cx="330" cy="40" r="1.2" fill="#F5E6B8" opacity="0"><animate attributeName="opacity" values="0;0.95;0" dur="3.4s" begin="1.7s" repeatCount="indefinite"/></circle><circle cx="660" cy="34" r="1.4" fill="#F5E6B8" opacity="0"><animate attributeName="opacity" values="0;0.95;0" dur="2.9s" begin="0.3s" repeatCount="indefinite"/></circle><circle cx="730" cy="94" r="1.6" fill="#F5E6B8" opacity="0"><animate attributeName="opacity" values="0;0.95;0" dur="3.5s" begin="2.5s" repeatCount="indefinite"/></circle><circle cx="800" cy="26" r="1.3" fill="#F5E6B8" opacity="0"><animate attributeName="opacity" values="0;0.95;0" dur="3.1s" begin="1.4s" repeatCount="indefinite"/></circle><circle cx="870" cy="88" r="1.5" fill="#F5E6B8" opacity="0"><animate attributeName="opacity" values="0;0.95;0" dur="2.7s" begin="0.9s" repeatCount="indefinite"/></circle><circle cx="940" cy="44" r="1.4" fill="#F5E6B8" opacity="0"><animate attributeName="opacity" values="0;0.95;0" dur="3.3s" begin="2s" repeatCount="indefinite"/></circle><circle cx="30" cy="70" r="1.2" fill="#F5E6B8" opacity="0"><animate attributeName="opacity" values="0;0.95;0" dur="3.7s" begin="1.9s" repeatCount="indefinite"/></circle><circle cx="975" cy="76" r="1.2" fill="#F5E6B8" opacity="0"><animate attributeName="opacity" values="0;0.95;0" dur="3.1s" begin="0.4s" repeatCount="indefinite"/></circle><path d="M150 55 Q150 60 155 60 Q150 60 150 65 Q150 60 145 60 Q150 60 150 55Z" fill="#FFF1C4" opacity="0"><animate attributeName="opacity" values="0;1;0" dur="4s" begin="0.5s" repeatCount="indefinite"/></path><path d="M850 55 Q850 60 855 60 Q850 60 850 65 Q850 60 845 60 Q850 60 850 55Z" fill="#FFF1C4" opacity="0"><animate attributeName="opacity" values="0;1;0" dur="4.5s" begin="2s" repeatCount="indefinite"/></path><path d="M300 16 Q300 20 304 20 Q300 20 300 24 Q300 20 296 20 Q300 20 300 16Z" fill="#FFF1C4" opacity="0"><animate attributeName="opacity" values="0;1;0" dur="3.6s" begin="1.6s" repeatCount="indefinite"/></path><path d="M700 98 Q700 102 704 102 Q700 102 700 106 Q700 102 696 102 Q700 102 700 98Z" fill="#FFF1C4" opacity="0"><animate attributeName="opacity" values="0;1;0" dur="4.2s" begin="2.8s" repeatCount="indefinite"/></path>
  <rect width="1000" height="120" fill="url(#vig)"/>

  <!-- ornament line with travelling light -->
  <rect x="120" y="99" width="760" height="1.5" fill="url(#ln)"/>
  <ellipse cx="0" cy="99.75" rx="34" ry="4" fill="url(#tr)"><animate attributeName="cx" values="100;900;900" keyTimes="0;0.7;1" dur="8s" repeatCount="indefinite"/></ellipse>
  <g transform="translate(500 99.75)"><rect x="-8" y="-8" width="16" height="16" transform="rotate(45)" fill="#D4A441" opacity="0.35" filter="url(#blur3)"><animate attributeName="opacity" values="0.2;0.6;0.2" dur="3.5s" repeatCount="indefinite"/></rect><rect x="-4.5" y="-4.5" width="9" height="9" transform="rotate(45)" fill="#141a09" stroke="#F8EBC4" stroke-width="1.4"/><rect x="-1.6" y="-1.6" width="3.2" height="3.2" transform="rotate(45)" fill="#D4A441"/></g>

  <!-- text: glow, extrusion, metallic face, shimmer -->
  <text x="500" font-family="'Fira Code','Courier New',monospace" font-size="16" font-weight="600" text-anchor="middle" letter-spacing="9" y="66" fill="#D4A441" opacity="0.4" filter="url(#blur10)"><animate attributeName="opacity" values="0.2;0.5;0.2" dur="5s" repeatCount="indefinite"/>THANKS FOR VISITING</text>
  <text x="500" font-family="'Fira Code','Courier New',monospace" font-size="16" font-weight="600" text-anchor="middle" letter-spacing="9" y="72" fill="#000" opacity="0.6" filter="url(#tsh)">THANKS FOR VISITING</text>
  <text x="500" font-family="'Fira Code','Courier New',monospace" font-size="16" font-weight="600" text-anchor="middle" letter-spacing="9" y="70" fill="#54400e">THANKS FOR VISITING</text><text x="500" font-family="'Fira Code','Courier New',monospace" font-size="16" font-weight="600" text-anchor="middle" letter-spacing="9" y="69" fill="#6b5014">THANKS FOR VISITING</text><text x="500" font-family="'Fira Code','Courier New',monospace" font-size="16" font-weight="600" text-anchor="middle" letter-spacing="9" y="68" fill="#7a5c17">THANKS FOR VISITING</text><text x="500" font-family="'Fira Code','Courier New',monospace" font-size="16" font-weight="600" text-anchor="middle" letter-spacing="9" y="67" fill="#8a6a1c">THANKS FOR VISITING</text>
  <text x="500" font-family="'Fira Code','Courier New',monospace" font-size="16" font-weight="600" text-anchor="middle" letter-spacing="9" y="66" fill="url(#gold)">THANKS FOR VISITING</text>
  <text x="500" font-family="'Fira Code','Courier New',monospace" font-size="16" font-weight="600" text-anchor="middle" letter-spacing="9" y="66" fill="url(#shim)">THANKS FOR VISITING</text>

  <!-- brackets: top-left and bottom-right, glow + double line -->
  <g fill="none" stroke-linecap="square">
    <g stroke="#D4A441" stroke-width="7" filter="url(#blur3)" opacity="0.55"><path d="M24 50 V24 H50"/><path d="M976 70 V96 H950"/></g>
    <g stroke="url(#gold)" stroke-width="3"><path d="M24 50 V24 H50"/><path d="M976 70 V96 H950"/></g>
    <g stroke="#D4A441" stroke-width="1.2" stroke-opacity="0.75"><path d="M34 46 V34 H46"/><path d="M966 74 V86 H954"/></g>
    <animate attributeName="opacity" values="0.55;1;0.55" dur="4s" repeatCount="indefinite"/>
  </g>
  <g clip-path="url(#scft)"><polygon points="42,0 182,0 140,120 0,120" fill="url(#sgft)" transform="translate(-280 0)"><animateTransform attributeName="transform" type="translate" values="-280 0;1140 0;1140 0" keyTimes="0;0.4;1" dur="12s" begin="1s" repeatCount="indefinite"/></polygon></g>
</svg>
